
<svg aria-hidden="true" style="position: absolute; width: 0; height: 0; overflow: hidden;" version="1.1" xmlns="http://www.w3.org/2000/svg" xmlns:xlink="http://www.w3.org/1999/xlink">
<defs>
<symbol id="icon-logo" viewBox="0 0 32 32">
<path fill="#ffc727" style="fill: var(--color3, #ffc727)" d="M21.94 4.396c-2.263-0.566-4.526-1.698-6.223-3.397-1.697 1.698-3.96 2.83-6.223 3.397 0.566 5.095 2.263 8.491 6.223 11.322 3.96-2.831 6.223-6.227 6.223-11.322z"></path>
<path fill="#fbfbfb" style="fill: var(--color4, #fbfbfb)" d="M19.677 25.474l-15.84-18.681v9.057l12.446 14.152 3.394-4.529z"></path>
<path fill="#fbfbfb" style="fill: var(--color4, #fbfbfb)" d="M21.374 23.776l6.789-7.925v-8.491l-10.749 12.454 3.96 3.963z"></path>
<path fill="#fbfbfb" style="fill: var(--color4, #fbfbfb)" d="M21.94 26.606v5.095l6.223-7.359v-5.095l-6.223 7.359z"></path>
<path fill="#fbfbfb" style="fill: var(--color4, #fbfbfb)" d="M10.060 26.606l-6.223-7.359v5.095l6.223 7.359v-5.095z"></path>
</symbol>

<symbol id="icon-email" viewBox="0 0 32 32">
<path fill="#fff" style="fill: var(--color1, #fff)" opacity="0.4" d="M26.667 5.333h-21.333c-1.467 0-2.653 1.2-2.653 2.667l-0.013 16c0 1.467 1.2 2.667 2.667 2.667h21.333c1.467 0 2.667-1.2 2.667-2.667v-16c0-1.467-1.2-2.667-2.667-2.667zM26.667 10.667l-10.667 6.667-10.667-6.667v-2.667l10.667 6.667 10.667-6.667v2.667z"></path>
</symbol>

<symbol id="icon-password" viewBox="0 0 32 32">
<path fill="#fff" style="fill: var(--color1, #fff)" opacity="0.4" d="M24 10.667h-1.333v-2.667c0-3.68-2.987-6.667-6.667-6.667s-6.667 2.987-6.667 6.667v2.667h-1.333c-1.467 0-2.667 1.2-2.667 2.667v13.333c0 1.467 1.2 2.667 2.667 2.667h16c1.467 0 2.667-1.2 2.667-2.667v-13.333c0-1.467-1.2-2.667-2.667-2.667zM16 22.667c-1.467 0-2.667-1.2-2.667-2.667s1.2-2.667 2.667-2.667c1.467 0 2.667 1.2 2.667 2.667s-1.2 2.667-2.667 2.667zM20.133 10.667h-8.267v-2.667c0-2.28 1.853-4.133 4.133-4.133s4.133 1.853 4.133 4.133v2.667z"></path>
</symbol>

<symbol id="icon-exit-logout" viewBox="0 0 32 32">
<path fill="#fff" style="fill: var(--color1, #fff)" opacity="0.6" d="M20.051 23.237h2.499v4.997c0 2.067-1.681 3.748-3.748 3.748h-15.054c-2.066 0-3.748-1.681-3.748-3.748v-24.486c0-2.066 1.681-3.748 3.748-3.748h15.054c2.067 0 3.748 1.681 3.748 3.748v4.997h-2.499v-4.997c0-0.689-0.56-1.249-1.249-1.249h-15.054c-0.689 0-1.249 0.561-1.249 1.249v24.486c0 0.689 0.561 1.249 1.249 1.249h15.054c0.689 0 1.249-0.561 1.249-1.249v-4.997zM26.111 10.102l-1.767 1.767 2.873 2.874h-16.161v2.499h16.161l-2.873 2.873 1.767 1.767 5.889-5.889-5.889-5.89z"></path>
</symbol>

<symbol id="icon-home" viewBox="0 0 32 32">
<path d="M6.545 2.182c-2.41 0-4.364 1.954-4.364 4.364v18.909c0 2.41 1.954 4.364 4.364 4.364h18.909c2.41 0 4.364-1.954 4.364-4.364v-18.909c0-2.41-1.954-4.364-4.364-4.364h-18.909zM13.77 17.716v5.961h-4.97v-7.948h-2.982l9.939-8.941 9.939 8.941h-2.982v7.948h-4.97v-5.961h-3.976z"></path>
</symbol>

<symbol id="icon-plus" viewBox="0 0 32 32">
<path fill="none" stroke="#fbfbfb" style="stroke: var(--color3, #fbfbfb)" stroke-linejoin="miter" stroke-linecap="butt" stroke-miterlimit="4" stroke-width="3.2" d="M16 0v32"></path>
<path fill="none" stroke="#fbfbfb" style="stroke: var(--color3, #fbfbfb)" stroke-linejoin="miter" stroke-linecap="butt" stroke-miterlimit="4" stroke-width="3.2" d="M0 16h32"></path>
</symbol>

<symbol id="icon-minis" viewBox="0 0 32 32">
<path fill="none" stroke="#fff" style="stroke: var(--color1, #fff)" stroke-linejoin="miter" stroke-linecap="butt" stroke-miterlimit="4" stroke-width="3.2" d="M0 16h32"></path>
</symbol>

<symbol id="icon-close" viewBox="0 0 32 32">
<path fill="none" stroke="#fbfbfb" style="stroke: var(--color3, #fbfbfb)" stroke-linejoin="miter" stroke-linecap="butt" stroke-miterlimit="4" stroke-width="1.7778" d="M1.778 1.778l28.444 28.444"></path>
<path fill="none" stroke="#fbfbfb" style="stroke: var(--color3, #fbfbfb)" stroke-linejoin="miter" stroke-linecap="butt" stroke-miterlimit="4" stroke-width="1.7778" d="M1.778 30.222l28.444-28.444"></path>
</symbol>

<symbol id="icon-calendar" viewBox="0 0 32 32">
<path fill="#734aef" style="fill: var(--color2, #734aef)" d="M12 14.667h-2.667v2.667h2.667v-2.667zM17.333 14.667h-2.667v2.667h2.667v-2.667zM22.667 14.667h-2.667v2.667h2.667v-2.667zM25.333 5.333h-1.333v-2.667h-2.667v2.667h-10.667v-2.667h-2.667v2.667h-1.333c-1.48 0-2.653 1.2-2.653 2.667l-0.013 18.667c0 1.467 1.187 2.667 2.667 2.667h18.667c1.467 0 2.667-1.2 2.667-2.667v-18.667c0-1.467-1.2-2.667-2.667-2.667zM25.333 26.667h-18.667v-14.667h18.667v14.667z"></path>
</symbol>

<symbol id="icon-pen" viewBox="0 0 32 32">
<path fill="none" stroke="#fff" style="stroke: var(--color1, #fff)" stroke-linejoin="round" stroke-linecap="round" stroke-miterlimit="4" stroke-width="2.56" d="M23.467 13.511l-4.978-4.978M4.178 27.823l4.212-0.468c0.515-0.057 0.772-0.086 1.012-0.164 0.213-0.069 0.416-0.167 0.604-0.29 0.211-0.139 0.394-0.322 0.76-0.688l16.435-16.434c1.375-1.375 1.375-3.603 0-4.978s-3.603-1.375-4.978 0l-16.434 16.434c-0.366 0.366-0.549 0.549-0.688 0.76-0.123 0.187-0.221 0.39-0.29 0.604-0.078 0.24-0.106 0.498-0.164 1.012l-0.468 4.212z"></path>
</symbol>

<symbol id="icon-dollar-2" viewBox="0 0 32 32">
<path  d="M6.545 2.182c-2.41 0-4.364 1.954-4.364 4.364v18.909c0 2.41 1.954 4.364 4.364 4.364h18.909c2.41 0 4.364-1.954 4.364-4.364v-18.909c0-2.41-1.954-4.364-4.364-4.364h-18.909zM13.638 13.526c0 0.86 0.661 1.412 2.715 1.946s4.253 1.412 4.253 3.982c0 1.855-1.403 2.878-3.167 3.212v1.946h-2.715v-1.964c-1.737-0.371-3.222-1.484-3.33-3.466h1.991c0.1 1.068 0.833 1.9 2.697 1.9 2 0 2.443-0.995 2.443-1.62 0-0.842-0.452-1.638-2.715-2.181-2.525-0.606-4.253-1.647-4.253-3.737 0-1.747 1.412-2.887 3.167-3.267v-1.955h2.715v1.982c1.891 0.462 2.841 1.891 2.905 3.448h-2c-0.054-1.131-0.651-1.9-2.262-1.9-1.529 0-2.443 0.688-2.443 1.674z"></path>
</symbol>

<symbol id="icon-account" viewBox="0 0 32 32">
<path fill="#fff" style="fill: var(--color1, #fff)" opacity="0.4" d="M4 6.667v18.667c0 1.467 1.187 2.667 2.667 2.667h18.667c1.467 0 2.667-1.2 2.667-2.667v-18.667c0-1.467-1.2-2.667-2.667-2.667h-18.667c-1.48 0-2.667 1.2-2.667 2.667zM20 12c0 2.213-1.787 4-4 4s-4-1.787-4-4c0-2.213 1.787-4 4-4s4 1.787 4 4zM8 22.667c0-2.667 5.333-4.133 8-4.133s8 1.467 8 4.133v1.333h-16v-1.333z"></path>
</symbol>

<symbol id="icon-arrow" viewBox="0 0 58 32">
<path fill="none" stroke="#fbfbfb" style="stroke: var(--color1, #fbfbfb)" stroke-linejoin="miter" stroke-linecap="butt" stroke-miterlimit="4" stroke-width="2.9091" d="M55.273 29.091l-26.182-26.182-26.182 26.182"></path>
</symbol>
<symbol id="icon-eye" viewBox="0 0 24 24" fill="none" xmlns="http://www.w3.org/2000/svg">
<path fill-rule="evenodd" clip-rule="evenodd" d="M12 8.25C9.92893 8.25 8.25 9.92893 8.25 12C8.25 14.0711 9.92893 15.75 12 15.75C14.0711 15.75 15.75 14.0711 15.75 12C15.75 9.92893 14.0711 8.25 12 8.25ZM9.75 12C9.75 10.7574 10.7574 9.75 12 9.75C13.2426 9.75 14.25 10.7574 14.25 12C14.25 13.2426 13.2426 14.25 12 14.25C10.7574 14.25 9.75 13.2426 9.75 12Z" fill="rgba(255, 255, 255, 0.4)"/>
<path fill-rule="evenodd" clip-rule="evenodd" d="M12 3.25C7.48587 3.25 4.44529 5.9542 2.68057 8.24686L2.64874 8.2882C2.24964 8.80653 1.88206 9.28392 1.63269 9.8484C1.36564 10.4529 1.25 11.1117 1.25 12C1.25 12.8883 1.36564 13.5471 1.63269 14.1516C1.88206 14.7161 2.24964 15.1935 2.64875 15.7118L2.68057 15.7531C4.44529 18.0458 7.48587 20.75 12 20.75C16.5141 20.75 19.5547 18.0458 21.3194 15.7531L21.3512 15.7118C21.7504 15.1935 22.1179 14.7161 22.3673 14.1516C22.6344 13.5471 22.75 12.8883 22.75 12C22.75 11.1117 22.6344 10.4529 22.3673 9.8484C22.1179 9.28391 21.7504 8.80652 21.3512 8.28818L21.3194 8.24686C19.5547 5.9542 16.5141 3.25 12 3.25ZM3.86922 9.1618C5.49864 7.04492 8.15036 4.75 12 4.75C15.8496 4.75 18.5014 7.04492 20.1308 9.1618C20.5694 9.73159 20.8263 10.0721 20.9952 10.4545C21.1532 10.812 21.25 11.2489 21.25 12C21.25 12.7511 21.1532 13.188 20.9952 13.5455C20.8263 13.9279 20.5694 14.2684 20.1308 14.8382C18.5014 16.9551 15.8496 19.25 12 19.25C8.15036 19.25 5.49864 16.9551 3.86922 14.8382C3.43064 14.2684 3.17374 13.9279 3.00476 13.5455C2.84684 13.188 2.75 12.7511 2.75 12C2.75 11.2489 2.84684 10.812 3.00476 10.4545C3.17374 10.0721 3.43063 9.73159 3.86922 9.1618Z" fill="rgba(255, 255, 255, 0.4)"/>
</symbol>
<symbol id="icon-eye-closed" viewBox="0 0 24 24" fill="none" xmlns="http://www.w3.org/2000/svg">
<path fill-rule="evenodd" clip-rule="evenodd" d="M22.2954 6.31083C22.6761 6.474 22.8524 6.91491 22.6893 7.29563L21.9999 7.00019C22.6893 7.29563 22.6894 7.29546 22.6893 7.29563L22.6886 7.29731L22.6875 7.2998L22.6843 7.30716L22.6736 7.33123C22.6646 7.35137 22.6518 7.37958 22.6352 7.41527C22.6019 7.48662 22.5533 7.58794 22.4888 7.71435C22.3599 7.967 22.1675 8.32087 21.9084 8.73666C21.4828 9.4197 20.8724 10.2778 20.0619 11.1304L21.0303 12.0987C21.3231 12.3916 21.3231 12.8665 21.0303 13.1594C20.7374 13.4523 20.2625 13.4523 19.9696 13.1594L18.969 12.1588C18.3093 12.7115 17.5528 13.2302 16.695 13.6564L17.6286 15.0912C17.8545 15.4383 17.7562 15.9029 17.409 16.1288C17.0618 16.3547 16.5972 16.2564 16.3713 15.9092L15.2821 14.2353C14.5028 14.4898 13.659 14.6628 12.7499 14.7248V16.5002C12.7499 16.9144 12.4141 17.2502 11.9999 17.2502C11.5857 17.2502 11.2499 16.9144 11.2499 16.5002V14.7248C10.3689 14.6647 9.54909 14.5004 8.78982 14.2586L7.71575 15.9093C7.48984 16.2565 7.02526 16.3548 6.67807 16.1289C6.33089 15.903 6.23257 15.4384 6.45847 15.0912L7.37089 13.689C6.5065 13.2668 5.74381 12.7504 5.07842 12.1984L4.11744 13.1594C3.82455 13.4523 3.34968 13.4523 3.05678 13.1594C2.76389 12.8665 2.76389 12.3917 3.05678 12.0988L3.98055 11.175C3.15599 10.3153 2.53525 9.44675 2.10277 8.75486C1.83984 8.33423 1.6446 7.97584 1.51388 7.71988C1.44848 7.59182 1.3991 7.48914 1.36537 7.41683C1.3485 7.38067 1.33553 7.35207 1.32641 7.33167L1.31562 7.30729L1.31238 7.29984L1.31129 7.29733L1.31088 7.29638C1.31081 7.2962 1.31056 7.29563 1.99992 7.00019L1.31088 7.29638C1.14772 6.91565 1.32376 6.474 1.70448 6.31083C2.08489 6.1478 2.52539 6.32374 2.68888 6.70381C2.68882 6.70368 2.68894 6.70394 2.68888 6.70381L2.68983 6.706L2.69591 6.71972C2.7018 6.73291 2.7114 6.7541 2.72472 6.78267C2.75139 6.83983 2.79296 6.92644 2.84976 7.03767C2.96345 7.26029 3.13762 7.58046 3.37472 7.95979C3.85033 8.72067 4.57157 9.70728 5.55561 10.6218C6.42151 11.4265 7.48259 12.1678 8.75165 12.656C9.70614 13.0232 10.7854 13.2502 11.9999 13.2502C13.2416 13.2502 14.342 13.013 15.3124 12.631C16.5738 12.1345 17.6277 11.3884 18.4866 10.5822C19.4562 9.67216 20.1668 8.69535 20.6354 7.9434C20.869 7.5685 21.0405 7.25246 21.1525 7.03286C21.2085 6.92315 21.2494 6.83776 21.2757 6.78144C21.2888 6.75328 21.2983 6.73242 21.3041 6.71943L21.31 6.70595L21.3106 6.70475C21.3105 6.70485 21.3106 6.70466 21.3106 6.70475M22.2954 6.31083C21.9147 6.14771 21.4738 6.32423 21.3106 6.70475L22.2954 6.31083ZM2.68888 6.70381C2.68882 6.70368 2.68894 6.70394 2.68888 6.70381V6.70381Z" fill="rgba(255, 255, 255, 0.4)"/>
</symbol>
<symbol id="icon-arrow-1" viewBox="0 0 58 32">
<path fill="none" stroke="#fbfbfb" style="stroke: var(--color1, #fbfbfb)" stroke-linejoin="miter" stroke-linecap="butt" stroke-miterlimit="4" stroke-width="2.9091" d="M55.273 2.909l-26.182 26.182-26.182-26.182"></path>
</symbol>

<symbol id="icon-diagram" viewBox="0 0 32 32"> 
<path  d="M6.545 2.182h18.909c2.41 0 4.364 1.954 4.364 4.364v18.909c0 2.41-1.954 4.364-4.364 4.364h-18.909c-2.41 0-4.364-1.954-4.364-4.364v-18.909c0-2.41 1.954-4.364 4.364-4.364zM23.636 14.222c0.933 0 1.697-0.8 1.697-1.778s-0.764-1.778-1.697-1.778c-0.933 0-1.697 0.8-1.697 1.778 0 0.16 0.017 0.311 0.059 0.453l-3.012 3.164c-0.136-0.044-0.288-0.062-0.441-0.062s-0.305 0.018-0.441 0.062l-2.164-2.267c0.042-0.142 0.059-0.302 0.059-0.462 0-0.978-0.764-1.778-1.697-1.778s-1.697 0.8-1.697 1.778c0 0.16 0.017 0.32 0.059 0.462l-3.869 4.044c-0.136-0.044-0.28-0.062-0.433-0.062-0.933 0-1.697 0.8-1.697 1.778s0.764 1.778 1.697 1.778c0.933 0 1.697-0.8 1.697-1.778 0-0.16-0.017-0.311-0.059-0.453l3.861-4.053c0.136 0.044 0.288 0.062 0.441 0.062s0.305-0.018 0.441-0.062l2.164 2.267c-0.042 0.142-0.059 0.302-0.059 0.462 0 0.978 0.764 1.778 1.697 1.778s1.697-0.8 1.697-1.778c0-0.16-0.017-0.32-0.059-0.462l3.021-3.156c0.136 0.044 0.28 0.062 0.433 0.062z"></path> 
</symbol>

</defs>
</svg>


